<svg width="309" height="56" viewBox="0 0 309 56" fill="none" xmlns="http://www.w3.org/2000/svg">
<mask id="mask0" mask-type="alpha" maskUnits="userSpaceOnUse" x="0" y="0" width="43" height="56">
<path fill-rule="evenodd" clip-rule="evenodd" d="M0 0H42.4106V55.9999H0V0Z" fill="white"/>
</mask>
<g mask="url(#mask0)">
<path fill-rule="evenodd" clip-rule="evenodd" d="M42.4106 -0.00012207H7.97041C3.56801 -0.00012207 0 3.56862 0 7.97102V48.0287C0 52.4311 3.56801 55.9999 7.97041 55.9999H42.4106L30.207 27.9999L42.4106 -0.00012207Z" fill="#FF833E"/>
</g>
<mask id="mask1" mask-type="alpha" maskUnits="userSpaceOnUse" x="17" y="28" width="26" height="28">
<path fill-rule="evenodd" clip-rule="evenodd" d="M17.959 28.0001H42.4099V56H17.959V28.0001Z" fill="white"/>
</mask>
<g mask="url(#mask1)">
<path fill-rule="evenodd" clip-rule="evenodd" d="M17.959 56.0001H42.4099L30.2063 28.0001L17.959 56.0001Z" fill="#EA5F34"/>
</g>
<path fill-rule="evenodd" clip-rule="evenodd" d="M171.133 47H171.867V9H171.133V47Z" fill="#B76C3A"/>
<path fill-rule="evenodd" clip-rule="evenodd" d="M59.201 19.1806V27.3105L66.8803 19.1806H71.7642L64.5069 26.9081L72.3228 37.8348H67.4396L61.7109 29.8475L59.201 32.5017V37.8348H55V19.1806H59.201Z" fill="#333333"/>
<path fill-rule="evenodd" clip-rule="evenodd" d="M74.6851 37.8348H78.6221V19.1806H74.6851V37.8348Z" fill="#333333"/>
<path fill-rule="evenodd" clip-rule="evenodd" d="M81.7716 19.1806H96.7322V22.7838H91.2971V37.8348H87.2186V22.7838H81.7716V19.1806Z" fill="#333333"/>
<path fill-rule="evenodd" clip-rule="evenodd" d="M108.309 29.9971L105.973 23.7565L103.625 29.9971H108.309ZM109.677 33.5211H102.254L100.603 37.9998H96.2012L103.771 19H108.16L115.731 37.9998H111.328L109.677 33.5211Z" fill="#333333"/>
<path fill-rule="evenodd" clip-rule="evenodd" d="M126.442 22.6702H122.603V28.0895H126.442C127.266 28.0895 127.952 27.8286 128.503 27.3075C129.053 26.7864 129.328 26.1459 129.328 25.3869C129.328 24.6271 129.053 23.9837 128.503 23.4581C127.952 22.9326 127.266 22.6702 126.442 22.6702ZM118.47 19.0002H126.576C128.554 19.0002 130.194 19.6118 131.495 20.8348C132.798 22.0586 133.448 23.573 133.448 25.3794C133.448 27.1859 132.8 28.701 131.502 29.9248C130.205 31.1479 128.563 31.7594 126.576 31.7594H122.603V38H118.47V19.0002Z" fill="#333333"/>
<path fill-rule="evenodd" clip-rule="evenodd" d="M136.448 37.4854C136.217 37.2527 136.102 36.9805 136.102 36.669C136.102 36.3574 136.217 36.0853 136.448 35.8525C136.678 35.6198 136.957 35.5031 137.283 35.5031C137.609 35.5031 137.888 35.6198 138.118 35.8525C138.349 36.0853 138.464 36.3574 138.464 36.669C138.464 36.9805 138.349 37.2527 138.118 37.4854C137.888 37.7189 137.609 37.8349 137.283 37.8349C136.957 37.8349 136.678 37.7189 136.448 37.4854Z" fill="#333333"/>
<path fill-rule="evenodd" clip-rule="evenodd" d="M143.732 34.8831L142.843 35.9682V37.8348H140.826V26.9532H142.843V33.3277L145.451 30.2162H147.76L145.007 33.4867L147.913 37.8348H145.677L143.732 34.8831Z" fill="#333333"/>
<path fill-rule="evenodd" clip-rule="evenodd" d="M154.846 30.0623V31.9666L151.25 35.9305H155V37.8349H148.701V35.9305L152.297 31.9666H148.847V30.0623H154.846Z" fill="#333333"/>
<path fill-rule="evenodd" clip-rule="evenodd" d="M195.023 17.3339L193.282 12.7703L191.531 17.3339H195.023ZM196.043 19.9108H190.511L189.282 23.1867H186L191.642 9.2917H194.913L200.556 23.1867H197.274L196.043 19.9108Z" fill="#B76C3A"/>
<path fill-rule="evenodd" clip-rule="evenodd" d="M208.848 19.1168C208.848 18.6518 208.606 18.2777 208.122 17.9931C207.639 17.7084 207.049 17.4714 206.352 17.2807C205.655 17.0899 204.961 16.8648 204.271 16.607C203.581 16.3492 202.992 15.9229 202.506 15.3282C202.02 14.7336 201.775 13.9809 201.775 13.0703C201.775 11.9465 202.241 10.9867 203.172 10.1923C204.101 9.39794 205.309 9 206.797 9C207.385 9 207.951 9.06707 208.497 9.19971C209.045 9.33236 209.493 9.48736 209.842 9.66472C210.193 9.84208 210.499 10.0224 210.764 10.2072C211.027 10.392 211.214 10.5515 211.328 10.6871L211.508 10.8809L209.668 12.7707C209.587 12.6798 209.476 12.568 209.333 12.4354C209.19 12.3042 208.887 12.1283 208.428 11.9078C207.968 11.6887 207.494 11.5784 207.008 11.5784C206.42 11.5784 205.948 11.7245 205.592 12.0136C205.234 12.3057 205.057 12.6574 205.057 13.0703C205.057 13.5353 205.297 13.9079 205.782 14.1896C206.265 14.4698 206.852 14.7082 207.542 14.902C208.233 15.0957 208.927 15.3223 209.624 15.5801C210.319 15.838 210.911 16.2642 211.398 16.8589C211.885 17.4535 212.128 18.2062 212.128 19.1168C212.128 20.4016 211.647 21.4523 210.682 22.2661C209.719 23.0798 208.391 23.4867 206.697 23.4867C206.031 23.4867 205.385 23.4077 204.761 23.2497C204.137 23.0917 203.624 22.9025 203.221 22.6834C202.817 22.4628 202.463 22.2407 202.155 22.0142C201.849 21.7876 201.629 21.5969 201.496 21.4419L201.266 21.1989L203.115 19.4179C203.209 19.5207 203.341 19.6549 203.51 19.8188C203.681 19.9842 204.06 20.2048 204.648 20.4835C205.232 20.7607 205.848 20.8994 206.488 20.8994C207.226 20.8994 207.805 20.7309 208.223 20.3956C208.639 20.0603 208.848 19.634 208.848 19.1168Z" fill="#B76C3A"/>
<path fill-rule="evenodd" clip-rule="evenodd" d="M227.173 9.2917V23.1867H224.102V17.5277H217.96V23.1867H214.88V9.2917H217.96V14.8524H224.102V9.2917H227.173Z" fill="#B76C3A"/>
<path fill-rule="evenodd" clip-rule="evenodd" d="M232.496 9.2917L235.876 15.2503L239.258 9.2917H242.538L237.416 18.2252V23.1867H234.336V18.2252L229.214 9.2917H232.496Z" fill="#B76C3A"/>
<path fill-rule="evenodd" clip-rule="evenodd" d="M247.46 12.998C246.566 13.8789 246.12 14.9609 246.12 16.2441C246.12 17.5259 246.566 18.6064 247.46 19.4858C248.354 20.3636 249.441 20.8033 250.726 20.8033C252.009 20.8033 253.099 20.3636 253.991 19.4858C254.885 18.6064 255.331 17.5259 255.331 16.2441C255.331 14.9609 254.885 13.8789 253.991 12.998C253.099 12.1157 252.009 11.6746 250.726 11.6746C249.441 11.6746 248.354 12.1157 247.46 12.998ZM245.193 21.3592C243.69 19.9418 242.939 18.2353 242.939 16.2382C242.939 14.2425 243.69 12.5375 245.193 11.1231C246.698 9.70724 248.541 9.00079 250.726 9.00079C252.91 9.00079 254.753 9.70724 256.258 11.1231C257.761 12.5375 258.515 14.2425 258.515 16.2382C258.515 17.0713 258.378 17.8597 258.104 18.6034C257.83 19.3457 257.501 19.9448 257.118 20.4009C256.735 20.8554 256.348 21.2549 255.962 21.5976C255.575 21.9404 255.247 22.1849 254.973 22.3339L254.562 22.547C254.59 22.5858 254.628 22.6394 254.682 22.7065C254.736 22.7751 254.865 22.8883 255.071 23.0463C255.279 23.2043 255.507 23.3459 255.758 23.4726C256.008 23.5978 256.35 23.714 256.787 23.8213C257.225 23.9271 257.696 23.9808 258.203 23.9808H258.613V26.3639H258.004C257.182 26.3639 256.41 26.2641 255.688 26.0644C254.964 25.8632 254.377 25.6187 253.927 25.3281C253.477 25.0375 253.079 24.7469 252.737 24.4547C252.393 24.1656 252.148 23.9197 252.002 23.7185L251.791 23.4294C251.491 23.4666 251.139 23.4875 250.731 23.4875C248.543 23.4875 246.698 22.778 245.193 21.3592Z" fill="#B76C3A"/>
<path fill-rule="evenodd" clip-rule="evenodd" d="M190.721 33.1047V39.1602L196.352 33.1047H199.934L194.612 38.8606L200.345 46.9997H196.763L192.561 41.05L190.721 43.0263V46.9997H187.64V33.1047H190.721Z" fill="#B76C3A"/>
<path fill-rule="evenodd" clip-rule="evenodd" d="M202.185 47H205.265V33.105H202.185V47Z" fill="#B76C3A"/>
<path fill-rule="evenodd" clip-rule="evenodd" d="M207.506 33.1047H218.769V35.7889H214.678V46.9997H211.607V35.7889H207.506V33.1047Z" fill="#B76C3A"/>
<path fill-rule="evenodd" clip-rule="evenodd" d="M227.173 41.1469L225.433 36.5833L223.682 41.1469H227.173ZM228.194 43.7238H222.662L221.433 46.9997H218.151L223.793 33.1047H227.064L232.706 46.9997H229.424L228.194 43.7238Z" fill="#B76C3A"/>
<path fill-rule="evenodd" clip-rule="evenodd" d="M240.686 35.7884H237.826V39.7514H240.686C241.3 39.7514 241.811 39.5606 242.222 39.1791C242.632 38.799 242.837 38.331 242.837 37.7751C242.837 37.2192 242.632 36.7497 242.222 36.3652C241.811 35.9807 241.3 35.7884 240.686 35.7884ZM234.745 33.1042H240.786C242.26 33.1042 243.482 33.5528 244.453 34.4471C245.424 35.3413 245.91 36.4487 245.91 37.7707C245.91 39.0912 245.425 40.1985 244.457 41.0942C243.491 41.9885 242.266 42.4356 240.786 42.4356H237.826V46.9992H234.745V33.1042Z" fill="#B76C3A"/>
<path fill-rule="evenodd" clip-rule="evenodd" d="M260.963 33.1047V46.9997H257.892V41.3406H251.75V46.9997H248.67V33.1047H251.75V38.6654H257.892V33.1047H260.963Z" fill="#B76C3A"/>
<path fill-rule="evenodd" clip-rule="evenodd" d="M272.027 41.1469L270.287 36.5833L268.536 41.1469H272.027ZM273.047 43.7238H267.516L266.286 46.9997H263.005L268.647 33.1047H271.918L277.56 46.9997H274.278L273.047 43.7238Z" fill="#B76C3A"/>
<path fill-rule="evenodd" clip-rule="evenodd" d="M289.334 33.1047H292.403V46.9997H289.743L282.681 38.172V46.9997H279.6V33.1047H282.27L289.334 41.9413V33.1047Z" fill="#B76C3A"/>
<path fill-rule="evenodd" clip-rule="evenodd" d="M303.467 41.1469L301.727 36.5833L299.976 41.1469H303.467ZM304.487 43.7238H298.956L297.726 46.9997H294.444L300.087 33.1047H303.358L309 46.9997H305.718L304.487 43.7238Z" fill="#B76C3A"/>
</svg>
